<svg width="54" height="54" viewBox="0 0 54 54" fill="none" xmlns="http://www.w3.org/2000/svg">
<g filter="url(#filter0_dii_161_29619)">
<path d="M35.6651 18.3375C36.7944 19.4695 37.6803 20.7875 38.2983 22.2559C38.9354 23.7762 39.258 25.3922 39.258 27.0547C39.2498 28.7117 38.9217 30.3168 38.2764 31.8262C37.6557 33.2836 36.767 34.5906 35.6377 35.709C34.5112 36.8274 33.1959 37.7024 31.733 38.3121C30.2373 38.9328 28.6487 39.25 27.0108 39.25H26.9534C25.9502 39.2457 24.9872 38.9202 24.0542 38.4888C22.4356 37.7403 20.667 37.3871 18.9075 37.6772L18.0069 37.8256C17.5553 37.9001 17.0651 37.9926 16.6743 37.7543C16.5003 37.6481 16.3541 37.5009 16.2492 37.326C16.0166 36.9387 16.107 36.4557 16.1795 36.0097L16.3306 35.0807C16.6157 33.3285 16.2635 31.568 15.5186 29.9566C15.0874 29.0238 14.7624 28.062 14.758 27.0574C14.7498 25.4031 15.067 23.7926 15.6959 22.2777C16.3002 20.8149 17.1807 19.5024 18.2963 18.3731C19.4147 17.2438 20.7217 16.3578 22.1791 15.7344C23.6885 15.0891 25.2936 14.7609 26.9506 14.7527H27.0053C28.6487 14.7527 30.2455 15.0727 31.7494 15.7043C33.2178 16.3195 34.5358 17.2082 35.6651 18.3375Z" fill="#FDA979"/>
</g>
<g filter="url(#filter1_dii_161_29619)">
<path d="M33.2016 28.5312C32.3786 28.5312 31.7141 27.8477 31.7141 27C31.7141 26.1523 32.3786 25.4688 33.2016 25.4688C34.0247 25.4688 34.6891 26.1523 34.6891 27C34.6919 27.8477 34.0247 28.5312 33.2016 28.5312ZM27.0028 28.5312C26.1797 28.5312 25.5153 27.8477 25.5153 27C25.5153 26.1523 26.1797 25.4688 27.0028 25.4688C27.8258 25.4688 28.4903 26.1523 28.4903 27C28.4876 27.8477 27.8231 28.5312 27.0028 28.5312Z" fill="white"/>
</g>
<g filter="url(#filter2_dii_161_29619)">
<path d="M19.3138 27C19.3138 27.2011 19.3523 27.4002 19.427 27.586C19.5018 27.7718 19.6113 27.9406 19.7495 28.0828C19.8876 28.2249 20.0516 28.3377 20.232 28.4147C20.4125 28.4916 20.6059 28.5312 20.8013 28.5312C20.9966 28.5312 21.19 28.4916 21.3705 28.4147C21.551 28.3377 21.715 28.2249 21.8531 28.0828C21.9912 27.9406 22.1008 27.7718 22.1755 27.586C22.2503 27.4002 22.2888 27.2011 22.2888 27C22.2888 26.5939 22.1321 26.2044 21.8531 25.9172C21.5741 25.6301 21.1958 25.4688 20.8013 25.4688C20.4068 25.4688 20.0284 25.6301 19.7495 25.9172C19.4705 26.2044 19.3138 26.5939 19.3138 27V27Z" fill="white"/>
</g>
<defs>
<filter id="filter0_dii_161_29619" x="6.46508" y="10.9833" width="41.0858" height="41.0829" filterUnits="userSpaceOnUse" color-interpolation-filters="sRGB">
<feFlood flood-opacity="0" result="BackgroundImageFix"/>
<feColorMatrix in="SourceAlpha" type="matrix" values="0 0 0 0 0 0 0 0 0 0 0 0 0 0 0 0 0 0 127 0" result="hardAlpha"/>
<feOffset dy="4.52335"/>
<feGaussianBlur stdDeviation="4.14641"/>
<feColorMatrix type="matrix" values="0 0 0 0 0.816667 0 0 0 0 0.172112 0 0 0 0 0.030625 0 0 0 0.25 0"/>
<feBlend mode="normal" in2="BackgroundImageFix" result="effect1_dropShadow_161_29619"/>
<feBlend mode="normal" in="SourceGraphic" in2="effect1_dropShadow_161_29619" result="shape"/>
<feColorMatrix in="SourceAlpha" type="matrix" values="0 0 0 0 0 0 0 0 0 0 0 0 0 0 0 0 0 0 127 0" result="hardAlpha"/>
<feOffset dy="-3.01557"/>
<feGaussianBlur stdDeviation="1.88473"/>
<feComposite in2="hardAlpha" operator="arithmetic" k2="-1" k3="1"/>
<feColorMatrix type="matrix" values="0 0 0 0 1 0 0 0 0 0.78 0 0 0 0 0 0 0 0 0.29 0"/>
<feBlend mode="normal" in2="shape" result="effect2_innerShadow_161_29619"/>
<feColorMatrix in="SourceAlpha" type="matrix" values="0 0 0 0 0 0 0 0 0 0 0 0 0 0 0 0 0 0 127 0" result="hardAlpha"/>
<feOffset dy="1.13"/>
<feGaussianBlur stdDeviation="1.07692"/>
<feComposite in2="hardAlpha" operator="arithmetic" k2="-1" k3="1"/>
<feColorMatrix type="matrix" values="0 0 0 0 1 0 0 0 0 1 0 0 0 0 1 0 0 0 0.5 0"/>
<feBlend mode="normal" in2="effect2_innerShadow_161_29619" result="effect3_innerShadow_161_29619"/>
</filter>
<filter id="filter1_dii_161_29619" x="21.7458" y="23.7554" width="16.7128" height="10.6014" filterUnits="userSpaceOnUse" color-interpolation-filters="sRGB">
<feFlood flood-opacity="0" result="BackgroundImageFix"/>
<feColorMatrix in="SourceAlpha" type="matrix" values="0 0 0 0 0 0 0 0 0 0 0 0 0 0 0 0 0 0 127 0" result="hardAlpha"/>
<feOffset dy="2.05607"/>
<feGaussianBlur stdDeviation="1.88473"/>
<feColorMatrix type="matrix" values="0 0 0 0 0.8625 0 0 0 0 0 0 0 0 0 0 0 0 0 0.25 0"/>
<feBlend mode="normal" in2="BackgroundImageFix" result="effect1_dropShadow_161_29619"/>
<feBlend mode="normal" in="SourceGraphic" in2="effect1_dropShadow_161_29619" result="shape"/>
<feColorMatrix in="SourceAlpha" type="matrix" values="0 0 0 0 0 0 0 0 0 0 0 0 0 0 0 0 0 0 127 0" result="hardAlpha"/>
<feOffset dy="-1.37071"/>
<feGaussianBlur stdDeviation="0.856696"/>
<feComposite in2="hardAlpha" operator="arithmetic" k2="-1" k3="1"/>
<feColorMatrix type="matrix" values="0 0 0 0 0.925 0 0 0 0 0.320667 0 0 0 0 0.0616667 0 0 0 0.12 0"/>
<feBlend mode="normal" in2="shape" result="effect2_innerShadow_161_29619"/>
<feColorMatrix in="SourceAlpha" type="matrix" values="0 0 0 0 0 0 0 0 0 0 0 0 0 0 0 0 0 0 127 0" result="hardAlpha"/>
<feOffset dy="-0.514017"/>
<feGaussianBlur stdDeviation="0.342678"/>
<feComposite in2="hardAlpha" operator="arithmetic" k2="-1" k3="1"/>
<feColorMatrix type="matrix" values="0 0 0 0 1 0 0 0 0 1 0 0 0 0 1 0 0 0 0.75 0"/>
<feBlend mode="normal" in2="effect2_innerShadow_161_29619" result="effect3_innerShadow_161_29619"/>
</filter>
<filter id="filter2_dii_161_29619" x="15.5443" y="23.7554" width="10.5139" height="10.6014" filterUnits="userSpaceOnUse" color-interpolation-filters="sRGB">
<feFlood flood-opacity="0" result="BackgroundImageFix"/>
<feColorMatrix in="SourceAlpha" type="matrix" values="0 0 0 0 0 0 0 0 0 0 0 0 0 0 0 0 0 0 127 0" result="hardAlpha"/>
<feOffset dy="2.05607"/>
<feGaussianBlur stdDeviation="1.88473"/>
<feColorMatrix type="matrix" values="0 0 0 0 0.8625 0 0 0 0 0 0 0 0 0 0 0 0 0 0.25 0"/>
<feBlend mode="normal" in2="BackgroundImageFix" result="effect1_dropShadow_161_29619"/>
<feBlend mode="normal" in="SourceGraphic" in2="effect1_dropShadow_161_29619" result="shape"/>
<feColorMatrix in="SourceAlpha" type="matrix" values="0 0 0 0 0 0 0 0 0 0 0 0 0 0 0 0 0 0 127 0" result="hardAlpha"/>
<feOffset dy="-1.37071"/>
<feGaussianBlur stdDeviation="0.856696"/>
<feComposite in2="hardAlpha" operator="arithmetic" k2="-1" k3="1"/>
<feColorMatrix type="matrix" values="0 0 0 0 0.925 0 0 0 0 0.320667 0 0 0 0 0.0616667 0 0 0 0.12 0"/>
<feBlend mode="normal" in2="shape" result="effect2_innerShadow_161_29619"/>
<feColorMatrix in="SourceAlpha" type="matrix" values="0 0 0 0 0 0 0 0 0 0 0 0 0 0 0 0 0 0 127 0" result="hardAlpha"/>
<feOffset dy="-0.514017"/>
<feGaussianBlur stdDeviation="0.342678"/>
<feComposite in2="hardAlpha" operator="arithmetic" k2="-1" k3="1"/>
<feColorMatrix type="matrix" values="0 0 0 0 1 0 0 0 0 1 0 0 0 0 1 0 0 0 0.75 0"/>
<feBlend mode="normal" in2="effect2_innerShadow_161_29619" result="effect3_innerShadow_161_29619"/>
</filter>
</defs>
</svg>
