<?xml version="1.0" standalone="no"?><!DOCTYPE svg PUBLIC "-//W3C//DTD SVG 1.1//EN" "http://www.w3.org/Graphics/SVG/1.1/DTD/svg11.dtd"><svg t="1721616987157" class="icon" viewBox="0 0 1024 1024" version="1.1" xmlns="http://www.w3.org/2000/svg" p-id="15275" xmlns:xlink="http://www.w3.org/1999/xlink" width="200" height="200"><path d="M458.183111 279.637333a171.804444 171.804444 0 1 1 343.637333 0 171.861333 171.861333 0 0 1-343.637333 0z m244.679111 189.383111h-145.749333c-59.818667 0-114.005333 13.056-153.713778 52.309334h233.329778V874.382222H523.093333c28.558222 14.108444 28.558222 15.957333 28.558223 24.263111 0 3.128889 0 7.537778-2.730667 11.093334 35.754667 4.010667 69.148444 6.115556 100.039111 6.115555 161.706667 0 255.431111-45.454222 261.233778-48.327111l11.491555-5.176889h2.759111v-179.228444c0-121.287111-100.152889-214.072889-221.496888-214.072889h-0.085334z m-177.436444 431.388445c0 8.760889-70.883556 15.815111-159.744 15.815111-88.832 0-160.881778-7.054222-160.881778-15.815111 0-6.257778 38.599111-11.605333 90.908444-14.165333v-23.921778H99.555556V535.409778h512.056888v326.912h-198.200888v23.153778c66.389333 2.104889 112.014222 7.964444 112.014222 14.933333z m46.933333-65.251556v-274.602666H138.780444v274.602666h433.578667z m-356.124444-25.116444h36.209777v-156.928H216.234667v156.928z m54.328889 0h25.173333V692.337778h-25.173333v117.703111z m38.229333 0h36.181333v-196.152889h-36.181333v196.152889z m136.817778 0h36.209777v-156.928h-36.209777v156.928z m-44.259556 0h26.140445V692.337778h-26.140445v117.703111z m-38.229333 0h25.144889v-171.008h-25.144889v171.008z" fill="#17abe3" p-id="15276"></path></svg>