<svg xmlns="http://www.w3.org/2000/svg" width="16" height="16" viewBox="0 0 16 16"><g fill="none"><path fill="url(#fluentColorPoll160)" d="M6 3a2 2 0 1 1 4 0v10a2 2 0 1 1-4 0z"/><path fill="url(#fluentColorPoll161)" d="M13 5a2 2 0 0 0-2 2v6a2 2 0 1 0 4 0V7a2 2 0 0 0-2-2"/><path fill="url(#fluentColorPoll162)" d="M3 7a2 2 0 0 0-2 2v4a2 2 0 1 0 4 0V9a2 2 0 0 0-2-2"/><defs><linearGradient id="fluentColorPoll160" x1="9.667" x2="7.529" y1="12.433" y2=".854" gradientUnits="userSpaceOnUse"><stop stop-color="#6d37cd"/><stop offset="1" stop-color="#ea71ef"/></linearGradient><linearGradient id="fluentColorPoll161" x1="14.667" x2="13.558" y1="13.167" y2="4.76" gradientUnits="userSpaceOnUse"><stop stop-color="#e23cb4"/><stop offset="1" stop-color="#ea71ef"/></linearGradient><linearGradient id="fluentColorPoll162" x1="1.5" x2="9.148" y1="7.333" y2="11.857" gradientUnits="userSpaceOnUse"><stop stop-color="#36dff1"/><stop offset="1" stop-color="#0078d4"/></linearGradient></defs></g></svg>