<svg width="54" height="54" viewBox="0 0 54 54" fill="none" xmlns="http://www.w3.org/2000/svg">
<g filter="url(#filter0_d_161_29759)">
<mask id="mask0_161_29759" style="mask-type:alpha" maskUnits="userSpaceOnUse" x="16" y="17" width="21" height="23">
<path d="M35.1248 17.0006H18.8748C17.8393 17.0006 16.9998 17.8401 16.9998 18.8756V37.6256C16.9998 38.6611 17.8393 39.5006 18.8748 39.5006H35.1248C36.1604 39.5006 36.9998 38.6611 36.9998 37.6256V18.8756C36.9998 17.8401 36.1604 17.0006 35.1248 17.0006Z" fill="white"/>
</mask>
<g mask="url(#mask0_161_29759)">
<g filter="url(#filter1_ii_161_29759)">
<path d="M35.1248 17.0006H18.8748C17.8393 17.0006 16.9998 17.8401 16.9998 18.8756V36.6256C16.9998 37.6611 17.8393 38.5006 18.8748 38.5006H35.1248C36.1604 38.5006 36.9998 37.6611 36.9998 36.6256V18.8756C36.9998 17.8401 36.1604 17.0006 35.1248 17.0006Z" fill="url(#paint0_linear_161_29759)"/>
</g>
</g>
<g filter="url(#filter2_di_161_29759)">
<path fill-rule="evenodd" clip-rule="evenodd" d="M28.8747 14.8755C29.6534 14.8755 30.3213 15.3502 30.6046 16.026C30.6294 16.085 30.6858 16.1255 30.7497 16.1255V16.1255C31.7853 16.1255 32.6247 16.965 32.6247 18.0005C32.6247 19.036 31.7853 19.8755 30.7497 19.8755H23.2497C22.2142 19.8755 21.3747 19.036 21.3747 18.0005C21.3747 16.965 22.2142 16.1255 23.2497 16.1255V16.1255C23.3137 16.1255 23.3701 16.085 23.3948 16.026C23.6782 15.3502 24.346 14.8755 25.1247 14.8755H28.8747Z" fill="#FFFEFE"/>
</g>
<path d="M32.9719 22H21.0275V33.9444H32.9719V22Z" fill="white" fill-opacity="0.01"/>
<g filter="url(#filter3_dii_161_29759)">
<path fill-rule="evenodd" clip-rule="evenodd" d="M27.5335 24.6822C27.5335 24.1511 27.9641 23.7206 28.4951 23.7206H32.0843C32.6154 23.7206 33.0459 24.1511 33.0459 24.6822V28.2715C33.0459 28.8025 32.6154 29.233 32.0843 29.233C31.5533 29.233 31.1227 28.8025 31.1227 28.2715V25.6438H28.4951C27.9641 25.6438 27.5335 25.2133 27.5335 24.6822Z" fill="white"/>
<path fill-rule="evenodd" clip-rule="evenodd" d="M32.7488 23.9869C33.1327 24.3539 33.1464 24.9626 32.7795 25.3465L28.3481 29.9826C28.036 30.3092 27.5385 30.3744 27.1526 30.1393L24.9333 29.233L22.3567 31.8752C22.0183 32.2844 21.4121 32.3418 21.0029 32.0033C20.5937 31.6648 20.5363 31.0587 20.8748 30.6495L23.9819 27.3659C24.2864 26.9977 24.8152 26.9089 25.2232 27.1576L27.4926 28.0943L31.3892 24.0176C31.7562 23.6337 32.3649 23.62 32.7488 23.9869Z" fill="white"/>
</g>
</g>
<defs>
<filter id="filter0_d_161_29759" x="8.22527" y="11.315" width="37.5495" height="37.674" filterUnits="userSpaceOnUse" color-interpolation-filters="sRGB">
<feFlood flood-opacity="0" result="BackgroundImageFix"/>
<feColorMatrix in="SourceAlpha" type="matrix" values="0 0 0 0 0 0 0 0 0 0 0 0 0 0 0 0 0 0 127 0" result="hardAlpha"/>
<feMorphology radius="0.346154" operator="dilate" in="SourceAlpha" result="effect1_dropShadow_161_29759"/>
<feOffset dy="3.21429"/>
<feGaussianBlur stdDeviation="3.21429"/>
<feColorMatrix type="matrix" values="0 0 0 0 0.222986 0 0 0 0 0.4732 0 0 0 0 0.704167 0 0 0 0.4 0"/>
<feBlend mode="normal" in2="BackgroundImageFix" result="effect1_dropShadow_161_29759"/>
<feBlend mode="normal" in="SourceGraphic" in2="effect1_dropShadow_161_29759" result="shape"/>
</filter>
<filter id="filter1_ii_161_29759" x="16.9998" y="14.8578" width="20" height="24.7143" filterUnits="userSpaceOnUse" color-interpolation-filters="sRGB">
<feFlood flood-opacity="0" result="BackgroundImageFix"/>
<feBlend mode="normal" in="SourceGraphic" in2="BackgroundImageFix" result="shape"/>
<feColorMatrix in="SourceAlpha" type="matrix" values="0 0 0 0 0 0 0 0 0 0 0 0 0 0 0 0 0 0 127 0" result="hardAlpha"/>
<feOffset dy="-2.14286"/>
<feGaussianBlur stdDeviation="1.07143"/>
<feComposite in2="hardAlpha" operator="arithmetic" k2="-1" k3="1"/>
<feColorMatrix type="matrix" values="0 0 0 0 0.0788195 0 0 0 0 0.633708 0 0 0 0 0.945833 0 0 0 0.7 0"/>
<feBlend mode="normal" in2="shape" result="effect1_innerShadow_161_29759"/>
<feColorMatrix in="SourceAlpha" type="matrix" values="0 0 0 0 0 0 0 0 0 0 0 0 0 0 0 0 0 0 127 0" result="hardAlpha"/>
<feOffset dy="1.07143"/>
<feGaussianBlur stdDeviation="1.07143"/>
<feComposite in2="hardAlpha" operator="arithmetic" k2="-1" k3="1"/>
<feColorMatrix type="matrix" values="0 0 0 0 1 0 0 0 0 1 0 0 0 0 1 0 0 0 0.7 0"/>
<feBlend mode="normal" in2="effect1_innerShadow_161_29759" result="effect2_innerShadow_161_29759"/>
</filter>
<filter id="filter2_di_161_29759" x="19.2319" y="13.4526" width="15.5357" height="9.28571" filterUnits="userSpaceOnUse" color-interpolation-filters="sRGB">
<feFlood flood-opacity="0" result="BackgroundImageFix"/>
<feColorMatrix in="SourceAlpha" type="matrix" values="0 0 0 0 0 0 0 0 0 0 0 0 0 0 0 0 0 0 127 0" result="hardAlpha"/>
<feOffset dy="0.72"/>
<feGaussianBlur stdDeviation="1.07143"/>
<feColorMatrix type="matrix" values="0 0 0 0 0.373715 0 0 0 0 0.67555 0 0 0 0 0.954167 0 0 0 0.6 0"/>
<feBlend mode="normal" in2="BackgroundImageFix" result="effect1_dropShadow_161_29759"/>
<feBlend mode="normal" in="SourceGraphic" in2="effect1_dropShadow_161_29759" result="shape"/>
<feColorMatrix in="SourceAlpha" type="matrix" values="0 0 0 0 0 0 0 0 0 0 0 0 0 0 0 0 0 0 127 0" result="hardAlpha"/>
<feOffset dy="-0.72"/>
<feGaussianBlur stdDeviation="1.07143"/>
<feComposite in2="hardAlpha" operator="arithmetic" k2="-1" k3="1"/>
<feColorMatrix type="matrix" values="0 0 0 0 0.0178125 0 0 0 0 0.37905 0 0 0 0 0.7125 0 0 0 0.4 0"/>
<feBlend mode="normal" in2="shape" result="effect2_innerShadow_161_29759"/>
</filter>
<filter id="filter3_dii_161_29759" x="16.327" y="22.2781" width="21.0461" height="17.1578" filterUnits="userSpaceOnUse" color-interpolation-filters="sRGB">
<feFlood flood-opacity="0" result="BackgroundImageFix"/>
<feColorMatrix in="SourceAlpha" type="matrix" values="0 0 0 0 0 0 0 0 0 0 0 0 0 0 0 0 0 0 127 0" result="hardAlpha"/>
<feOffset dy="2.88476"/>
<feGaussianBlur stdDeviation="2.16357"/>
<feColorMatrix type="matrix" values="0 0 0 0 0 0 0 0 0 0.355333 0 0 0 0 0.683333 0 0 0 0.5 0"/>
<feBlend mode="normal" in2="BackgroundImageFix" result="effect1_dropShadow_161_29759"/>
<feBlend mode="normal" in="SourceGraphic" in2="effect1_dropShadow_161_29759" result="shape"/>
<feColorMatrix in="SourceAlpha" type="matrix" values="0 0 0 0 0 0 0 0 0 0 0 0 0 0 0 0 0 0 127 0" result="hardAlpha"/>
<feOffset dy="-1.1539"/>
<feGaussianBlur stdDeviation="0.72119"/>
<feComposite in2="hardAlpha" operator="arithmetic" k2="-1" k3="1"/>
<feColorMatrix type="matrix" values="0 0 0 0 0 0 0 0 0 0.58 0 0 0 0 1 0 0 0 0.4 0"/>
<feBlend mode="normal" in2="shape" result="effect2_innerShadow_161_29759"/>
<feColorMatrix in="SourceAlpha" type="matrix" values="0 0 0 0 0 0 0 0 0 0 0 0 0 0 0 0 0 0 127 0" result="hardAlpha"/>
<feOffset dy="-0.582535"/>
<feGaussianBlur stdDeviation="0.388357"/>
<feComposite in2="hardAlpha" operator="arithmetic" k2="-1" k3="1"/>
<feColorMatrix type="matrix" values="0 0 0 0 0.879167 0 0 0 0 1 0 0 0 0 1 0 0 0 0.75 0"/>
<feBlend mode="normal" in2="effect2_innerShadow_161_29759" result="effect3_innerShadow_161_29759"/>
</filter>
<linearGradient id="paint0_linear_161_29759" x1="46.2857" y1="8.7862" x2="15.7475" y2="39.2897" gradientUnits="userSpaceOnUse">
<stop stop-color="#24B5E3"/>
<stop offset="0.53305" stop-color="#56CCFF"/>
<stop offset="1" stop-color="#0BA7FF"/>
</linearGradient>
</defs>
</svg>
