<svg xmlns="http://www.w3.org/2000/svg" width="16" height="16" viewBox="0 0 16 16"><g fill="none"><path fill="url(#fluentColorPeople160)" d="M10.038 12.264c.384.145.863.236 1.462.236c.598 0 1.077-.09 1.46-.235c1.538-.582 1.538-2.04 1.538-2.04c0-.677-.549-1.225-1.225-1.225H9.725C9.048 9 8.5 9.548 8.5 10.225c0 0 0 1.457 1.538 2.04"/><path fill="url(#fluentColorPeople165)" fill-opacity="0.5" d="M10.038 12.264c.384.145.863.236 1.462.236c.598 0 1.077-.09 1.46-.235c1.538-.582 1.538-2.04 1.538-2.04c0-.677-.549-1.225-1.225-1.225H9.725C9.048 9 8.5 9.548 8.5 10.225c0 0 0 1.457 1.538 2.04"/><path fill="url(#fluentColorPeople161)" d="M9.5 10.5A1.5 1.5 0 0 0 8 9H3a1.5 1.5 0 0 0-1.5 1.5v.075s0 2.925 4 2.925c3.812 0 3.991-2.656 4-2.906z"/><path fill="url(#fluentColorPeople162)" d="M9.5 10.5A1.5 1.5 0 0 0 8 9H3a1.5 1.5 0 0 0-1.5 1.5v.075s0 2.925 4 2.925c3.812 0 3.991-2.656 4-2.906z"/><path fill="url(#fluentColorPeople163)" d="M11.5 8a2 2 0 1 0 0-4a2 2 0 0 0 0 4"/><path fill="url(#fluentColorPeople164)" d="M8 5.5a2.5 2.5 0 1 1-5 0a2.5 2.5 0 0 1 5 0"/><defs><linearGradient id="fluentColorPeople160" x1="9.926" x2="11.205" y1="9.465" y2="12.963" gradientUnits="userSpaceOnUse"><stop offset=".125" stop-color="#9c6cfe"/><stop offset="1" stop-color="#7a41dc"/></linearGradient><linearGradient id="fluentColorPeople161" x1="3.402" x2="5" y1="9.598" y2="14.134" gradientUnits="userSpaceOnUse"><stop offset=".125" stop-color="#bd96ff"/><stop offset="1" stop-color="#9c6cfe"/></linearGradient><linearGradient id="fluentColorPeople162" x1="5.5" x2="7.75" y1="8.464" y2="15.939" gradientUnits="userSpaceOnUse"><stop stop-color="#885edb" stop-opacity="0"/><stop offset="1" stop-color="#e362f8"/></linearGradient><linearGradient id="fluentColorPeople163" x1="10.451" x2="12.49" y1="4.532" y2="7.787" gradientUnits="userSpaceOnUse"><stop offset=".125" stop-color="#9c6cfe"/><stop offset="1" stop-color="#7a41dc"/></linearGradient><linearGradient id="fluentColorPeople164" x1="4.189" x2="6.737" y1="3.665" y2="7.734" gradientUnits="userSpaceOnUse"><stop offset=".125" stop-color="#bd96ff"/><stop offset="1" stop-color="#9c6cfe"/></linearGradient><radialGradient id="fluentColorPeople165" cx="0" cy="0" r="1" gradientTransform="matrix(3.9472 -.51042 .5289 4.09009 7.74 10.75)" gradientUnits="userSpaceOnUse"><stop offset=".392" stop-color="#3b148a"/><stop offset="1" stop-color="#3b148a" stop-opacity="0"/></radialGradient></defs></g></svg>